<svg xmlns="http://www.w3.org/2000/svg" version="1.1" width="582.7mm" height="212.7mm" viewBox = " 0 0 2064.686737 753.6620369999999" >
<!-- Front--> 
<g transform="translate(22.5000185, 22.5000185) " > 
<polygon style="stroke:#000000; fill:none; stroke-width:0.90000074" points="14.17324, 0 37.204755, 0 37.204755, 14.17324 50.31500199999999, 14.17324 50.31500199999999, 25.157501 45.8858645, 25.157501 45.8858645, 34.015776 50.31500199999999, 34.015776 50.31500199999999, 42.874050999999994 61.299262999999996, 42.874050999999994 61.299262999999996, 34.015776 65.72840049999999, 34.015776 65.72840049999999, 25.157501 61.299262999999996, 25.157501 61.299262999999996, 14.17324 74.40951, 14.17324 74.40951, 0 102.75599, 0 102.75599, 14.17324 131.10246999999998, 14.17324 131.10246999999998, 0 159.44895, 0 159.44895, 14.17324 187.79543, 14.17324 187.79543, 0 216.14191, 0 216.14191, 14.17324 244.48838999999998, 14.17324 244.48838999999998, 0 272.83487, 0 272.83487, 14.17324 301.18135, 14.17324 301.18135, 0 329.52783, 0 329.52783, 14.17324 357.87431, 14.17324 357.87431, 0 386.22079, 0 386.22079, 14.17324 414.56727, 14.17324 414.56727, 0 442.91375, 0 442.91375, 14.17324 471.26023000000004, 14.17324 471.26023000000004, 0 499.60671, 0 499.60671, 14.17324 527.95319, 14.17324 527.95319, 0 556.29967, 0 556.29967, 14.17324 584.6461499999999, 14.17324 584.6461499999999, 0 612.99263, 0 612.99263, 14.17324 641.3391099999999, 14.17324 641.3391099999999, 0 669.6855899999999, 0 669.6855899999999, 14.17324 682.7958369999999, 14.17324 682.7958369999999, 25.157501 678.3666994999999, 25.157501 678.3666994999999, 34.015776 682.7958369999999, 34.015776 682.7958369999999, 42.874050999999994 693.780098, 42.874050999999994 693.780098, 34.015776 698.2092355, 34.015776 698.2092355, 25.157501 693.780098, 25.157501 693.780098, 14.17324 706.890345, 14.17324 706.890345, 0 729.92186, 0 729.92186, 37.204755 744.0951, 37.204755 744.0951, 49.252008999999994 730.984853, 49.252008999999994 730.984853, 62.362255999999995 744.0951, 62.362255999999995 744.0951, 74.40951 729.92186, 74.40951 729.92186, 102.75599 744.0951, 102.75599 744.0951, 114.803244 730.984853, 114.803244 730.984853, 127.913491 744.0951, 127.913491 744.0951, 139.96074499999997 729.92186, 139.96074499999997 729.92186, 177.1655 706.890345, 177.1655 706.890345, 162.99226000000002 693.780098, 162.99226000000002 693.780098, 152.007999 698.2092355, 152.007999 698.2092355, 143.14972400000002 693.780098, 143.14972400000002 693.780098, 134.29144900000003 682.7958369999999, 134.29144900000003 682.7958369999999, 143.14972400000002 678.3666994999999, 143.14972400000002 678.3666994999999, 152.007999 682.7958369999999, 152.007999 682.7958369999999, 162.99226000000002 669.6855899999999, 162.99226000000002 669.6855899999999, 177.1655 641.3391099999999, 177.1655 641.3391099999999, 162.99226000000002 612.99263, 162.99226000000002 612.99263, 177.1655 584.6461499999999, 177.1655 584.6461499999999, 162.99226000000002 556.29967, 162.99226000000002 556.29967, 177.1655 527.95319, 177.1655 527.95319, 162.99226000000002 499.60671, 162.99226000000002 499.60671, 177.1655 471.26023000000004, 177.1655 471.26023000000004, 162.99226000000002 442.91375, 162.99226000000002 442.91375, 177.1655 414.56727, 177.1655 414.56727, 162.99226000000002 386.22079, 162.99226000000002 386.22079, 177.1655 357.87431, 177.1655 357.87431, 162.99226000000002 329.52783, 162.99226000000002 329.52783, 177.1655 301.18135, 177.1655 301.18135, 162.99226000000002 272.83487, 162.99226000000002 272.83487, 177.1655 244.48838999999998, 177.1655 244.48838999999998, 162.99226000000002 216.14191, 162.99226000000002 216.14191, 177.1655 187.79543, 177.1655 187.79543, 162.99226000000002 159.44895, 162.99226000000002 159.44895, 177.1655 131.10246999999998, 177.1655 131.10246999999998, 162.99226000000002 102.75599, 162.99226000000002 102.75599, 177.1655 74.40951, 177.1655 74.40951, 162.99226000000002 61.299262999999996, 162.99226000000002 61.299262999999996, 152.007999 65.72840049999999, 152.007999 65.72840049999999, 143.14972400000002 61.299262999999996, 143.14972400000002 61.299262999999996, 134.29144900000003 50.31500199999999, 134.29144900000003 50.31500199999999, 143.14972400000002 45.8858645, 143.14972400000002 45.8858645, 152.007999 50.31500199999999, 152.007999 50.31500199999999, 162.99226000000002 37.204755, 162.99226000000002 37.204755, 177.1655 14.17324, 177.1655 14.17324, 139.96074499999997 0, 139.96074499999997 0, 127.913491 13.110247000000001, 127.913491 13.110247000000001, 114.803244 0, 114.803244 0, 102.75599 14.17324, 102.75599 14.17324, 74.40951 0, 74.40951 0, 62.362255999999995 13.110247000000001, 62.362255999999995 13.110247000000001, 49.252008999999994 0, 49.252008999999994 0, 37.204755 14.17324, 37.204755 "/> 
</g>
<!-- Back--> 
<g transform="translate(766.5951185, 22.5000185) " > 
<polygon style="stroke:#000000; fill:none; stroke-width:0.90000074" points="14.17324, 0 37.204755, 0 37.204755, 14.17324 50.31500199999999, 14.17324 50.31500199999999, 25.157501 45.8858645, 25.157501 45.8858645, 34.015776 50.31500199999999, 34.015776 50.31500199999999, 42.874050999999994 61.299262999999996, 42.874050999999994 61.299262999999996, 34.015776 65.72840049999999, 34.015776 65.72840049999999, 25.157501 61.299262999999996, 25.157501 61.299262999999996, 14.17324 74.40951, 14.17324 74.40951, 0 102.75599, 0 102.75599, 14.17324 131.10246999999998, 14.17324 131.10246999999998, 0 159.44895, 0 159.44895, 14.17324 187.79543, 14.17324 187.79543, 0 216.14191, 0 216.14191, 14.17324 244.48838999999998, 14.17324 244.48838999999998, 0 272.83487, 0 272.83487, 14.17324 301.18135, 14.17324 301.18135, 0 329.52783, 0 329.52783, 14.17324 357.87431, 14.17324 357.87431, 0 386.22079, 0 386.22079, 14.17324 414.56727, 14.17324 414.56727, 0 442.91375, 0 442.91375, 14.17324 471.26023000000004, 14.17324 471.26023000000004, 0 499.60671, 0 499.60671, 14.17324 527.95319, 14.17324 527.95319, 0 556.29967, 0 556.29967, 14.17324 584.6461499999999, 14.17324 584.6461499999999, 0 612.99263, 0 612.99263, 14.17324 641.3391099999999, 14.17324 641.3391099999999, 0 669.6855899999999, 0 669.6855899999999, 14.17324 682.7958369999999, 14.17324 682.7958369999999, 25.157501 678.3666994999999, 25.157501 678.3666994999999, 34.015776 682.7958369999999, 34.015776 682.7958369999999, 42.874050999999994 693.780098, 42.874050999999994 693.780098, 34.015776 698.2092355, 34.015776 698.2092355, 25.157501 693.780098, 25.157501 693.780098, 14.17324 706.890345, 14.17324 706.890345, 0 729.92186, 0 729.92186, 37.204755 744.0951, 37.204755 744.0951, 49.252008999999994 730.984853, 49.252008999999994 730.984853, 62.362255999999995 744.0951, 62.362255999999995 744.0951, 74.40951 729.92186, 74.40951 729.92186, 102.75599 744.0951, 102.75599 744.0951, 114.803244 730.984853, 114.803244 730.984853, 127.913491 744.0951, 127.913491 744.0951, 139.96074499999997 729.92186, 139.96074499999997 729.92186, 177.1655 706.890345, 177.1655 706.890345, 162.99226000000002 693.780098, 162.99226000000002 693.780098, 152.007999 698.2092355, 152.007999 698.2092355, 143.14972400000002 693.780098, 143.14972400000002 693.780098, 134.29144900000003 682.7958369999999, 134.29144900000003 682.7958369999999, 143.14972400000002 678.3666994999999, 143.14972400000002 678.3666994999999, 152.007999 682.7958369999999, 152.007999 682.7958369999999, 162.99226000000002 669.6855899999999, 162.99226000000002 669.6855899999999, 177.1655 641.3391099999999, 177.1655 641.3391099999999, 162.99226000000002 612.99263, 162.99226000000002 612.99263, 177.1655 584.6461499999999, 177.1655 584.6461499999999, 162.99226000000002 556.29967, 162.99226000000002 556.29967, 177.1655 527.95319, 177.1655 527.95319, 162.99226000000002 499.60671, 162.99226000000002 499.60671, 177.1655 471.26023000000004, 177.1655 471.26023000000004, 162.99226000000002 442.91375, 162.99226000000002 442.91375, 177.1655 414.56727, 177.1655 414.56727, 162.99226000000002 386.22079, 162.99226000000002 386.22079, 177.1655 357.87431, 177.1655 357.87431, 162.99226000000002 329.52783, 162.99226000000002 329.52783, 177.1655 301.18135, 177.1655 301.18135, 162.99226000000002 272.83487, 162.99226000000002 272.83487, 177.1655 244.48838999999998, 177.1655 244.48838999999998, 162.99226000000002 216.14191, 162.99226000000002 216.14191, 177.1655 187.79543, 177.1655 187.79543, 162.99226000000002 159.44895, 162.99226000000002 159.44895, 177.1655 131.10246999999998, 177.1655 131.10246999999998, 162.99226000000002 102.75599, 162.99226000000002 102.75599, 177.1655 74.40951, 177.1655 74.40951, 162.99226000000002 61.299262999999996, 162.99226000000002 61.299262999999996, 152.007999 65.72840049999999, 152.007999 65.72840049999999, 143.14972400000002 61.299262999999996, 143.14972400000002 61.299262999999996, 134.29144900000003 50.31500199999999, 134.29144900000003 50.31500199999999, 143.14972400000002 45.8858645, 143.14972400000002 45.8858645, 152.007999 50.31500199999999, 152.007999 50.31500199999999, 162.99226000000002 37.204755, 162.99226000000002 37.204755, 177.1655 14.17324, 177.1655 14.17324, 139.96074499999997 0, 139.96074499999997 0, 127.913491 13.110247000000001, 127.913491 13.110247000000001, 114.803244 0, 114.803244 0, 102.75599 14.17324, 102.75599 14.17324, 74.40951 0, 74.40951 0, 62.362255999999995 13.110247000000001, 62.362255999999995 13.110247000000001, 49.252008999999994 0, 49.252008999999994 0, 37.204755 14.17324, 37.204755 "/> 
</g>
<!-- Left--> 
<g transform="translate(1510.6902185000001, 22.5000185) " > 
<polygon style="stroke:#000000; fill:none; stroke-width:0.90000074" points="0, 14.17324 40.748065, 14.17324 40.748065, 0 54.566973999999995, 0 54.566973999999995, 13.110247000000001 67.677221, 13.110247000000001 67.677221, 0 81.49613, 0 81.49613, 14.17324 109.84261, 14.17324 109.84261, 0 138.18909, 0 138.18909, 14.17324 166.53557, 14.17324 166.53557, 0 194.88205, 0 194.88205, 14.17324 223.22852999999998, 14.17324 223.22852999999998, 0 251.57501, 0 251.57501, 14.17324 279.92149, 14.17324 279.92149, 0 308.26797, 0 308.26797, 14.17324 336.61445, 14.17324 336.61445, 0 364.96092999999996, 0 364.96092999999996, 14.17324 393.30741, 14.17324 393.30741, 0 421.65389, 0 421.65389, 14.17324 450.00037, 14.17324 450.00037, 0 463.819279, 0 463.819279, 13.110247000000001 476.92952599999995, 13.110247000000001 476.92952599999995, 0 490.748435, 0 490.748435, 14.17324 531.4965, 14.17324 531.4965, 37.204755 517.32326, 37.204755 517.32326, 50.31500199999999 506.338999, 50.31500199999999 506.338999, 45.8858645 497.480724, 45.8858645 497.480724, 50.31500199999999 488.622449, 50.31500199999999 488.622449, 61.299262999999996 497.480724, 61.299262999999996 497.480724, 65.72840049999999 506.338999, 65.72840049999999 506.338999, 61.299262999999996 517.32326, 61.299262999999996 517.32326, 74.40951 531.4965, 74.40951 531.4965, 102.75599 517.32326, 102.75599 517.32326, 115.866237 506.338999, 115.866237 506.338999, 111.4370995 497.480724, 111.4370995 497.480724, 115.866237 488.622449, 115.866237 488.622449, 126.850498 497.480724, 126.850498 497.480724, 131.2796355 506.338999, 131.2796355 506.338999, 126.850498 517.32326, 126.850498 517.32326, 139.96074499999997 531.4965, 139.96074499999997 531.4965, 162.99226000000002 490.748435, 162.99226000000002 490.748435, 177.1655 476.92952599999995, 177.1655 476.92952599999995, 164.055253 463.819279, 164.055253 463.819279, 177.1655 450.00037, 177.1655 450.00037, 162.99226000000002 421.65389, 162.99226000000002 421.65389, 177.1655 393.30741, 177.1655 393.30741, 162.99226000000002 364.96092999999996, 162.99226000000002 364.96092999999996, 177.1655 336.61445, 177.1655 336.61445, 162.99226000000002 308.26797, 162.99226000000002 308.26797, 177.1655 279.92149, 177.1655 279.92149, 162.99226000000002 251.57501, 162.99226000000002 251.57501, 177.1655 223.22852999999998, 177.1655 223.22852999999998, 162.99226000000002 194.88205, 162.99226000000002 194.88205, 177.1655 166.53557, 177.1655 166.53557, 162.99226000000002 138.18909, 162.99226000000002 138.18909, 177.1655 109.84261, 177.1655 109.84261, 162.99226000000002 81.49613, 162.99226000000002 81.49613, 177.1655 67.677221, 177.1655 67.677221, 164.055253 54.566973999999995, 164.055253 54.566973999999995, 177.1655 40.748065, 177.1655 40.748065, 162.99226000000002 0, 162.99226000000002 0, 139.96074499999997 14.17324, 139.96074499999997 14.17324, 126.850498 25.157501, 126.850498 25.157501, 131.2796355 34.015776, 131.2796355 34.015776, 126.850498 42.874050999999994, 126.850498 42.874050999999994, 115.866237 34.015776, 115.866237 34.015776, 111.4370995 25.157501, 111.4370995 25.157501, 115.866237 14.17324, 115.866237 14.17324, 102.75599 0, 102.75599 0, 74.40951 14.17324, 74.40951 14.17324, 61.299262999999996 25.157501, 61.299262999999996 25.157501, 65.72840049999999 34.015776, 65.72840049999999 34.015776, 61.299262999999996 42.874050999999994, 61.299262999999996 42.874050999999994, 50.31500199999999 34.015776, 50.31500199999999 34.015776, 45.8858645 25.157501, 45.8858645 25.157501, 50.31500199999999 14.17324, 50.31500199999999 14.17324, 37.204755 0, 37.204755 "/> 
</g>
<!-- Right--> 
<g transform="translate(1510.6902185000001, 199.6655185) " > 
<polygon style="stroke:#000000; fill:none; stroke-width:0.90000074" points="0, 14.17324 40.748065, 14.17324 40.748065, 0 54.566973999999995, 0 54.566973999999995, 13.110247000000001 67.677221, 13.110247000000001 67.677221, 0 81.49613, 0 81.49613, 14.17324 109.84261, 14.17324 109.84261, 0 138.18909, 0 138.18909, 14.17324 166.53557, 14.17324 166.53557, 0 194.88205, 0 194.88205, 14.17324 223.22852999999998, 14.17324 223.22852999999998, 0 251.57501, 0 251.57501, 14.17324 279.92149, 14.17324 279.92149, 0 308.26797, 0 308.26797, 14.17324 336.61445, 14.17324 336.61445, 0 364.96092999999996, 0 364.96092999999996, 14.17324 393.30741, 14.17324 393.30741, 0 421.65389, 0 421.65389, 14.17324 450.00037, 14.17324 450.00037, 0 463.819279, 0 463.819279, 13.110247000000001 476.92952599999995, 13.110247000000001 476.92952599999995, 0 490.748435, 0 490.748435, 14.17324 531.4965, 14.17324 531.4965, 37.204755 517.32326, 37.204755 517.32326, 50.31500199999999 506.338999, 50.31500199999999 506.338999, 45.8858645 497.480724, 45.8858645 497.480724, 50.31500199999999 488.622449, 50.31500199999999 488.622449, 61.299262999999996 497.480724, 61.299262999999996 497.480724, 65.72840049999999 506.338999, 65.72840049999999 506.338999, 61.299262999999996 517.32326, 61.299262999999996 517.32326, 74.40951 531.4965, 74.40951 531.4965, 102.75599 517.32326, 102.75599 517.32326, 115.866237 506.338999, 115.866237 506.338999, 111.4370995 497.480724, 111.4370995 497.480724, 115.866237 488.622449, 115.866237 488.622449, 126.850498 497.480724, 126.850498 497.480724, 131.2796355 506.338999, 131.2796355 506.338999, 126.850498 517.32326, 126.850498 517.32326, 139.96074499999997 531.4965, 139.96074499999997 531.4965, 162.99226000000002 490.748435, 162.99226000000002 490.748435, 177.1655 476.92952599999995, 177.1655 476.92952599999995, 164.055253 463.819279, 164.055253 463.819279, 177.1655 450.00037, 177.1655 450.00037, 162.99226000000002 421.65389, 162.99226000000002 421.65389, 177.1655 393.30741, 177.1655 393.30741, 162.99226000000002 364.96092999999996, 162.99226000000002 364.96092999999996, 177.1655 336.61445, 177.1655 336.61445, 162.99226000000002 308.26797, 162.99226000000002 308.26797, 177.1655 279.92149, 177.1655 279.92149, 162.99226000000002 251.57501, 162.99226000000002 251.57501, 177.1655 223.22852999999998, 177.1655 223.22852999999998, 162.99226000000002 194.88205, 162.99226000000002 194.88205, 177.1655 166.53557, 177.1655 166.53557, 162.99226000000002 138.18909, 162.99226000000002 138.18909, 177.1655 109.84261, 177.1655 109.84261, 162.99226000000002 81.49613, 162.99226000000002 81.49613, 177.1655 67.677221, 177.1655 67.677221, 164.055253 54.566973999999995, 164.055253 54.566973999999995, 177.1655 40.748065, 177.1655 40.748065, 162.99226000000002 0, 162.99226000000002 0, 139.96074499999997 14.17324, 139.96074499999997 14.17324, 126.850498 25.157501, 126.850498 25.157501, 131.2796355 34.015776, 131.2796355 34.015776, 126.850498 42.874050999999994, 126.850498 42.874050999999994, 115.866237 34.015776, 115.866237 34.015776, 111.4370995 25.157501, 111.4370995 25.157501, 115.866237 14.17324, 115.866237 14.17324, 102.75599 0, 102.75599 0, 74.40951 14.17324, 74.40951 14.17324, 61.299262999999996 25.157501, 61.299262999999996 25.157501, 65.72840049999999 34.015776, 65.72840049999999 34.015776, 61.299262999999996 42.874050999999994, 61.299262999999996 42.874050999999994, 50.31500199999999 34.015776, 50.31500199999999 34.015776, 45.8858645 25.157501, 45.8858645 25.157501, 50.31500199999999 14.17324, 50.31500199999999 14.17324, 37.204755 0, 37.204755 "/> 
</g>
<!-- Top--> 
<g transform="translate(22.5000185, 199.6655185) " > 
<polygon style="stroke:#000000; fill:none; stroke-width:0.90000074" points="0, 14.17324 37.204755, 14.17324 37.204755, 0 49.252008999999994, 0 49.252008999999994, 13.110247000000001 62.362255999999995, 13.110247000000001 62.362255999999995, 0 74.40951, 0 74.40951, 14.17324 102.75599, 14.17324 102.75599, 0 131.10246999999998, 0 131.10246999999998, 14.17324 159.44895, 14.17324 159.44895, 0 187.79543, 0 187.79543, 14.17324 216.14191, 14.17324 216.14191, 0 244.48838999999998, 0 244.48838999999998, 14.17324 272.83487, 14.17324 272.83487, 0 301.18135, 0 301.18135, 14.17324 329.52783, 14.17324 329.52783, 0 357.87431, 0 357.87431, 14.17324 386.22079, 14.17324 386.22079, 0 414.56727, 0 414.56727, 14.17324 442.91375, 14.17324 442.91375, 0 471.26023000000004, 0 471.26023000000004, 14.17324 499.60671, 14.17324 499.60671, 0 527.95319, 0 527.95319, 14.17324 556.29967, 14.17324 556.29967, 0 584.6461499999999, 0 584.6461499999999, 14.17324 612.99263, 14.17324 612.99263, 0 641.3391099999999, 0 641.3391099999999, 14.17324 669.6855899999999, 14.17324 669.6855899999999, 0 681.7328439999999, 0 681.7328439999999, 13.110247000000001 694.843091, 13.110247000000001 694.843091, 0 706.890345, 0 706.890345, 14.17324 744.0951, 14.17324 744.0951, 40.748065 729.92186, 40.748065 729.92186, 55.62996699999999 718.9375990000001, 55.62996699999999 718.9375990000001, 51.2008295 710.079324, 51.2008295 710.079324, 55.62996699999999 701.221049, 55.62996699999999 701.221049, 66.614228 710.079324, 66.614228 710.079324, 71.0433655 718.9375990000001, 71.0433655 718.9375990000001, 66.614228 729.92186, 66.614228 729.92186, 81.49613 744.0951, 81.49613 744.0951, 109.84261 729.92186, 109.84261 729.92186, 138.18909 744.0951, 138.18909 744.0951, 166.53557 729.92186, 166.53557 729.92186, 194.88205 744.0951, 194.88205 744.0951, 223.22852999999998 729.92186, 223.22852999999998 729.92186, 251.57501 744.0951, 251.57501 744.0951, 279.92149 729.92186, 279.92149 729.92186, 308.26797 744.0951, 308.26797 744.0951, 336.61445 729.92186, 336.61445 729.92186, 364.96092999999996 744.0951, 364.96092999999996 744.0951, 393.30741 729.92186, 393.30741 729.92186, 421.65389 744.0951, 421.65389 744.0951, 450.00037 729.92186, 450.00037 729.92186, 464.882272 718.9375990000001, 464.882272 718.9375990000001, 460.4531345 710.079324, 460.4531345 710.079324, 464.882272 701.221049, 464.882272 701.221049, 475.86653299999995 710.079324, 475.86653299999995 710.079324, 480.29567049999997 718.9375990000001, 480.29567049999997 718.9375990000001, 475.86653299999995 729.92186, 475.86653299999995 729.92186, 490.748435 744.0951, 490.748435 744.0951, 517.32326 706.890345, 517.32326 706.890345, 531.4965 694.843091, 531.4965 694.843091, 518.386253 681.7328439999999, 518.386253 681.7328439999999, 531.4965 669.6855899999999, 531.4965 669.6855899999999, 517.32326 641.3391099999999, 517.32326 641.3391099999999, 531.4965 612.99263, 531.4965 612.99263, 517.32326 584.6461499999999, 517.32326 584.6461499999999, 531.4965 556.29967, 531.4965 556.29967, 517.32326 527.95319, 517.32326 527.95319, 531.4965 499.60671, 531.4965 499.60671, 517.32326 471.26023000000004, 517.32326 471.26023000000004, 531.4965 442.91375, 531.4965 442.91375, 517.32326 414.56727, 517.32326 414.56727, 531.4965 386.22079, 531.4965 386.22079, 517.32326 357.87431, 517.32326 357.87431, 531.4965 329.52783, 531.4965 329.52783, 517.32326 301.18135, 517.32326 301.18135, 531.4965 272.83487, 531.4965 272.83487, 517.32326 244.48838999999998, 517.32326 244.48838999999998, 531.4965 216.14191, 531.4965 216.14191, 517.32326 187.79543, 517.32326 187.79543, 531.4965 159.44895, 531.4965 159.44895, 517.32326 131.10246999999998, 517.32326 131.10246999999998, 531.4965 102.75599, 531.4965 102.75599, 517.32326 74.40951, 517.32326 74.40951, 531.4965 62.362255999999995, 531.4965 62.362255999999995, 518.386253 49.252008999999994, 518.386253 49.252008999999994, 531.4965 37.204755, 531.4965 37.204755, 517.32326 0, 517.32326 0, 490.748435 14.17324, 490.748435 14.17324, 475.86653299999995 25.157501, 475.86653299999995 25.157501, 480.29567049999997 34.015776, 480.29567049999997 34.015776, 475.86653299999995 42.874050999999994, 475.86653299999995 42.874050999999994, 464.882272 34.015776, 464.882272 34.015776, 460.4531345 25.157501, 460.4531345 25.157501, 464.882272 14.17324, 464.882272 14.17324, 450.00037 0, 450.00037 0, 421.65389 14.17324, 421.65389 14.17324, 393.30741 0, 393.30741 0, 364.96092999999996 14.17324, 364.96092999999996 14.17324, 336.61445 0, 336.61445 0, 308.26797 14.17324, 308.26797 14.17324, 279.92149 0, 279.92149 0, 251.57501 14.17324, 251.57501 14.17324, 223.22852999999998 0, 223.22852999999998 0, 194.88205 14.17324, 194.88205 14.17324, 166.53557 0, 166.53557 0, 138.18909 14.17324, 138.18909 14.17324, 109.84261 0, 109.84261 0, 81.49613 14.17324, 81.49613 14.17324, 66.614228 25.157501, 66.614228 25.157501, 71.0433655 34.015776, 71.0433655 34.015776, 66.614228 42.874050999999994, 66.614228 42.874050999999994, 55.62996699999999 34.015776, 55.62996699999999 34.015776, 51.2008295 25.157501, 51.2008295 25.157501, 55.62996699999999 14.17324, 55.62996699999999 14.17324, 40.748065 0, 40.748065 "/> 
</g>
<!-- Bottom--> 
<g transform="translate(766.5951185, 199.6655185) " > 
<polygon style="stroke:#000000; fill:none; stroke-width:0.90000074" points="0, 14.17324 37.204755, 14.17324 37.204755, 0 49.252008999999994, 0 49.252008999999994, 13.110247000000001 62.362255999999995, 13.110247000000001 62.362255999999995, 0 74.40951, 0 74.40951, 14.17324 102.75599, 14.17324 102.75599, 0 131.10246999999998, 0 131.10246999999998, 14.17324 159.44895, 14.17324 159.44895, 0 187.79543, 0 187.79543, 14.17324 216.14191, 14.17324 216.14191, 0 244.48838999999998, 0 244.48838999999998, 14.17324 272.83487, 14.17324 272.83487, 0 301.18135, 0 301.18135, 14.17324 329.52783, 14.17324 329.52783, 0 357.87431, 0 357.87431, 14.17324 386.22079, 14.17324 386.22079, 0 414.56727, 0 414.56727, 14.17324 442.91375, 14.17324 442.91375, 0 471.26023000000004, 0 471.26023000000004, 14.17324 499.60671, 14.17324 499.60671, 0 527.95319, 0 527.95319, 14.17324 556.29967, 14.17324 556.29967, 0 584.6461499999999, 0 584.6461499999999, 14.17324 612.99263, 14.17324 612.99263, 0 641.3391099999999, 0 641.3391099999999, 14.17324 669.6855899999999, 14.17324 669.6855899999999, 0 681.7328439999999, 0 681.7328439999999, 13.110247000000001 694.843091, 13.110247000000001 694.843091, 0 706.890345, 0 706.890345, 14.17324 744.0951, 14.17324 744.0951, 40.748065 729.92186, 40.748065 729.92186, 55.62996699999999 718.9375990000001, 55.62996699999999 718.9375990000001, 51.2008295 710.079324, 51.2008295 710.079324, 55.62996699999999 701.221049, 55.62996699999999 701.221049, 66.614228 710.079324, 66.614228 710.079324, 71.0433655 718.9375990000001, 71.0433655 718.9375990000001, 66.614228 729.92186, 66.614228 729.92186, 81.49613 744.0951, 81.49613 744.0951, 109.84261 729.92186, 109.84261 729.92186, 138.18909 744.0951, 138.18909 744.0951, 166.53557 729.92186, 166.53557 729.92186, 194.88205 744.0951, 194.88205 744.0951, 223.22852999999998 729.92186, 223.22852999999998 729.92186, 251.57501 744.0951, 251.57501 744.0951, 279.92149 729.92186, 279.92149 729.92186, 308.26797 744.0951, 308.26797 744.0951, 336.61445 729.92186, 336.61445 729.92186, 364.96092999999996 744.0951, 364.96092999999996 744.0951, 393.30741 729.92186, 393.30741 729.92186, 421.65389 744.0951, 421.65389 744.0951, 450.00037 729.92186, 450.00037 729.92186, 464.882272 718.9375990000001, 464.882272 718.9375990000001, 460.4531345 710.079324, 460.4531345 710.079324, 464.882272 701.221049, 464.882272 701.221049, 475.86653299999995 710.079324, 475.86653299999995 710.079324, 480.29567049999997 718.9375990000001, 480.29567049999997 718.9375990000001, 475.86653299999995 729.92186, 475.86653299999995 729.92186, 490.748435 744.0951, 490.748435 744.0951, 517.32326 706.890345, 517.32326 706.890345, 531.4965 694.843091, 531.4965 694.843091, 518.386253 681.7328439999999, 518.386253 681.7328439999999, 531.4965 669.6855899999999, 531.4965 669.6855899999999, 517.32326 641.3391099999999, 517.32326 641.3391099999999, 531.4965 612.99263, 531.4965 612.99263, 517.32326 584.6461499999999, 517.32326 584.6461499999999, 531.4965 556.29967, 531.4965 556.29967, 517.32326 527.95319, 517.32326 527.95319, 531.4965 499.60671, 531.4965 499.60671, 517.32326 471.26023000000004, 517.32326 471.26023000000004, 531.4965 442.91375, 531.4965 442.91375, 517.32326 414.56727, 517.32326 414.56727, 531.4965 386.22079, 531.4965 386.22079, 517.32326 357.87431, 517.32326 357.87431, 531.4965 329.52783, 531.4965 329.52783, 517.32326 301.18135, 517.32326 301.18135, 531.4965 272.83487, 531.4965 272.83487, 517.32326 244.48838999999998, 517.32326 244.48838999999998, 531.4965 216.14191, 531.4965 216.14191, 517.32326 187.79543, 517.32326 187.79543, 531.4965 159.44895, 531.4965 159.44895, 517.32326 131.10246999999998, 517.32326 131.10246999999998, 531.4965 102.75599, 531.4965 102.75599, 517.32326 74.40951, 517.32326 74.40951, 531.4965 62.362255999999995, 531.4965 62.362255999999995, 518.386253 49.252008999999994, 518.386253 49.252008999999994, 531.4965 37.204755, 531.4965 37.204755, 517.32326 0, 517.32326 0, 490.748435 14.17324, 490.748435 14.17324, 475.86653299999995 25.157501, 475.86653299999995 25.157501, 480.29567049999997 34.015776, 480.29567049999997 34.015776, 475.86653299999995 42.874050999999994, 475.86653299999995 42.874050999999994, 464.882272 34.015776, 464.882272 34.015776, 460.4531345 25.157501, 460.4531345 25.157501, 464.882272 14.17324, 464.882272 14.17324, 450.00037 0, 450.00037 0, 421.65389 14.17324, 421.65389 14.17324, 393.30741 0, 393.30741 0, 364.96092999999996 14.17324, 364.96092999999996 14.17324, 336.61445 0, 336.61445 0, 308.26797 14.17324, 308.26797 14.17324, 279.92149 0, 279.92149 0, 251.57501 14.17324, 251.57501 14.17324, 223.22852999999998 0, 223.22852999999998 0, 194.88205 14.17324, 194.88205 14.17324, 166.53557 0, 166.53557 0, 138.18909 14.17324, 138.18909 14.17324, 109.84261 0, 109.84261 0, 81.49613 14.17324, 81.49613 14.17324, 66.614228 25.157501, 66.614228 25.157501, 71.0433655 34.015776, 71.0433655 34.015776, 66.614228 42.874050999999994, 66.614228 42.874050999999994, 55.62996699999999 34.015776, 55.62996699999999 34.015776, 51.2008295 25.157501, 51.2008295 25.157501, 55.62996699999999 14.17324, 55.62996699999999 14.17324, 40.748065 0, 40.748065 "/> 
</g></svg>