<?xml version="1.0" encoding="utf-8"?>
<!-- Generator: Adobe Illustrator 14.0.0, SVG Export Plug-In . SVG Version: 6.00 Build 43363)  -->
<!DOCTYPE svg PUBLIC "-//W3C//DTD SVG 1.1//EN" "http://www.w3.org/Graphics/SVG/1.1/DTD/svg11.dtd">
<svg version="1.1" id="Layer_1" xmlns="http://www.w3.org/2000/svg" xmlns:xlink="http://www.w3.org/1999/xlink" x="0px" y="0px"
	 width="1651.748px" height="574.582px" viewBox="0 0 1651.748 574.582" enable-background="new 0 0 1651.748 574.582"
	 xml:space="preserve">
<g transform="translate(22.5000185, 22.5000185) ">
	<polygon fill="none" stroke="#000000" stroke-width="0.9" points="0.504,-15.838 18.929,-15.838 18.929,-4.5 29.417,-4.5 
		29.417,4.288 25.874,4.288 25.874,11.374 29.417,11.374 29.417,18.461 38.205,18.461 38.205,11.374 41.748,11.374 41.748,4.288 
		38.205,4.288 38.205,-4.5 48.693,-4.5 48.693,-15.838 71.37,-15.838 71.37,-4.5 94.047,-4.5 94.047,-15.838 116.724,-15.838 
		116.724,-4.5 139.401,-4.5 139.401,-15.838 162.079,-15.838 162.079,-4.5 184.756,-4.5 184.756,-15.838 207.433,-15.838 
		207.433,-4.5 230.11,-4.5 230.11,-15.838 252.787,-15.838 252.787,-4.5 275.464,-4.5 275.464,-15.838 298.142,-15.838 
		298.142,-4.5 320.818,-4.5 320.818,-15.838 343.496,-15.838 343.496,-4.5 366.173,-4.5 366.173,-15.838 388.851,-15.838 
		388.851,-4.5 411.527,-4.5 411.527,-15.838 434.204,-15.838 434.204,-4.5 456.882,-4.5 456.882,-15.838 479.559,-15.838 
		479.559,-4.5 502.236,-4.5 502.236,-15.838 524.913,-15.838 524.913,-4.5 535.401,-4.5 535.401,4.288 531.858,4.288 
		531.858,11.374 535.401,11.374 535.401,18.461 544.188,18.461 544.188,11.374 547.732,11.374 547.732,4.288 544.188,4.288 
		544.188,-4.5 554.677,-4.5 554.677,-15.838 573.103,-15.838 573.103,6.839 584.44,6.839 584.44,29.517 573.103,29.517 
		573.103,36.461 564.314,36.461 564.314,32.918 557.229,32.918 557.229,36.461 550.142,36.461 550.142,45.248 557.229,45.248 
		557.229,48.792 564.314,48.792 564.314,45.248 573.103,45.248 573.103,52.194 584.44,52.194 584.44,74.87 573.103,74.87 
		573.103,97.548 554.677,97.548 554.677,86.209 544.188,86.209 544.188,77.422 547.732,77.422 547.732,70.335 544.188,70.335 
		544.188,63.248 535.401,63.248 535.401,70.335 531.858,70.335 531.858,77.422 535.401,77.422 535.401,86.209 524.913,86.209 
		524.913,97.548 502.236,97.548 502.236,86.209 479.559,86.209 479.559,97.548 456.882,97.548 456.882,86.209 434.204,86.209 
		434.204,97.548 411.527,97.548 411.527,86.209 388.851,86.209 388.851,97.548 366.173,97.548 366.173,86.209 343.496,86.209 
		343.496,97.548 320.818,97.548 320.818,86.209 298.142,86.209 298.142,97.548 275.464,97.548 275.464,86.209 252.787,86.209 
		252.787,97.548 230.11,97.548 230.11,86.209 207.433,86.209 207.433,97.548 184.756,97.548 184.756,86.209 162.079,86.209 
		162.079,97.548 139.401,97.548 139.401,86.209 116.724,86.209 116.724,97.548 94.047,97.548 94.047,86.209 71.37,86.209 
		71.37,97.548 48.693,97.548 48.693,86.209 38.205,86.209 38.205,77.422 41.748,77.422 41.748,70.335 38.205,70.335 38.205,63.248 
		29.417,63.248 29.417,70.335 25.874,70.335 25.874,77.422 29.417,77.422 29.417,86.209 18.929,86.209 18.929,97.548 0.504,97.548 
		0.504,74.87 -10.835,74.87 -10.835,52.194 0.504,52.194 0.504,45.248 9.291,45.248 9.291,48.792 16.378,48.792 16.378,45.248 
		23.464,45.248 23.464,36.461 16.378,36.461 16.378,32.918 9.291,32.918 9.291,36.461 0.504,36.461 0.504,29.517 -10.835,29.517 
		-10.835,6.839 0.504,6.839 	"/>
</g>
<g transform="translate(766.5951185, 22.5000185) ">
	<polygon fill="none" stroke="#000000" stroke-width="0.9" points="-128.874,-15.838 -110.45,-15.838 -110.45,-4.5 -99.961,-4.5 
		-99.961,4.288 -103.504,4.288 -103.504,11.374 -99.961,11.374 -99.961,18.461 -91.173,18.461 -91.173,11.374 -87.63,11.374 
		-87.63,4.288 -91.173,4.288 -91.173,-4.5 -80.686,-4.5 -80.686,-15.838 -58.008,-15.838 -58.008,-4.5 -35.331,-4.5 
		-35.331,-15.838 -12.654,-15.838 -12.654,-4.5 10.023,-4.5 10.023,-15.838 32.701,-15.838 32.701,-4.5 55.378,-4.5 55.378,-15.838 
		78.054,-15.838 78.054,-4.5 100.732,-4.5 100.732,-15.838 123.409,-15.838 123.409,-4.5 146.087,-4.5 146.087,-15.838 
		168.763,-15.838 168.763,-4.5 191.441,-4.5 191.441,-15.838 214.118,-15.838 214.118,-4.5 236.795,-4.5 236.795,-15.838 
		259.472,-15.838 259.472,-4.5 282.149,-4.5 282.149,-15.838 304.826,-15.838 304.826,-4.5 327.504,-4.5 327.504,-15.838 
		350.18,-15.838 350.18,-4.5 372.858,-4.5 372.858,-15.838 395.535,-15.838 395.535,-4.5 406.023,-4.5 406.023,4.288 402.48,4.288 
		402.48,11.374 406.023,11.374 406.023,18.461 414.81,18.461 414.81,11.374 418.354,11.374 418.354,4.288 414.81,4.288 414.81,-4.5 
		425.298,-4.5 425.298,-15.838 443.724,-15.838 443.724,6.839 455.062,6.839 455.062,29.517 443.724,29.517 443.724,36.461 
		434.937,36.461 434.937,32.918 427.85,32.918 427.85,36.461 420.763,36.461 420.763,45.248 427.85,45.248 427.85,48.792 
		434.937,48.792 434.937,45.248 443.724,45.248 443.724,52.194 455.062,52.194 455.062,74.87 443.724,74.87 443.724,97.548 
		425.298,97.548 425.298,86.209 414.81,86.209 414.81,77.422 418.354,77.422 418.354,70.335 414.81,70.335 414.81,63.248 
		406.023,63.248 406.023,70.335 402.48,70.335 402.48,77.422 406.023,77.422 406.023,86.209 395.535,86.209 395.535,97.548 
		372.858,97.548 372.858,86.209 350.18,86.209 350.18,97.548 327.504,97.548 327.504,86.209 304.826,86.209 304.826,97.548 
		282.149,97.548 282.149,86.209 259.472,86.209 259.472,97.548 236.795,97.548 236.795,86.209 214.118,86.209 214.118,97.548 
		191.441,97.548 191.441,86.209 168.763,86.209 168.763,97.548 146.087,97.548 146.087,86.209 123.409,86.209 123.409,97.548 
		100.732,97.548 100.732,86.209 78.054,86.209 78.054,97.548 55.378,97.548 55.378,86.209 32.701,86.209 32.701,97.548 
		10.023,97.548 10.023,86.209 -12.654,86.209 -12.654,97.548 -35.331,97.548 -35.331,86.209 -58.008,86.209 -58.008,97.548 
		-80.686,97.548 -80.686,86.209 -91.173,86.209 -91.173,77.422 -87.63,77.422 -87.63,70.335 -91.173,70.335 -91.173,63.248 
		-99.961,63.248 -99.961,70.335 -103.504,70.335 -103.504,77.422 -99.961,77.422 -99.961,86.209 -110.45,86.209 -110.45,97.548 
		-128.874,97.548 -128.874,74.87 -140.213,74.87 -140.213,52.194 -128.874,52.194 -128.874,45.248 -120.087,45.248 -120.087,48.792 
		-113,48.792 -113,45.248 -105.913,45.248 -105.913,36.461 -113,36.461 -113,32.918 -120.087,32.918 -120.087,36.461 
		-128.874,36.461 -128.874,29.517 -140.213,29.517 -140.213,6.839 -128.874,6.839 	"/>
</g>
<g transform="translate(1510.6902185000001, 22.5000185) ">
	<polygon fill="none" stroke="#000000" stroke-width="0.9" points="-279.139,28.243 -246.541,28.243 -246.541,16.906 
		-235.485,16.906 -235.485,27.394 -224.997,27.394 -224.997,16.906 -213.942,16.906 -213.942,28.243 -191.265,28.243 
		-191.265,16.906 -168.588,16.906 -168.588,28.243 -145.911,28.243 -145.911,16.906 -123.233,16.906 -123.233,28.243 
		-100.556,28.243 -100.556,16.906 -77.88,16.906 -77.88,28.243 -55.202,28.243 -55.202,16.906 -32.525,16.906 -32.525,28.243 
		-9.847,28.243 -9.847,16.906 12.829,16.906 12.829,28.243 35.507,28.243 35.507,16.906 58.184,16.906 58.184,28.243 80.861,28.243 
		80.861,16.906 91.916,16.906 91.916,27.394 102.405,27.394 102.405,16.906 113.459,16.906 113.459,28.243 146.058,28.243 
		146.058,39.582 134.719,39.582 134.719,62.26 146.058,62.26 146.058,68.354 135.57,68.354 135.57,78.842 146.058,78.842 
		146.058,84.937 134.719,84.937 134.719,107.614 146.058,107.614 146.058,118.952 113.459,118.952 113.459,130.291 102.405,130.291 
		102.405,119.803 91.916,119.803 91.916,130.291 80.861,130.291 80.861,118.952 58.184,118.952 58.184,130.291 35.507,130.291 
		35.507,118.952 12.829,118.952 12.829,130.291 -9.847,130.291 -9.847,118.952 -32.525,118.952 -32.525,130.291 -55.202,130.291 
		-55.202,118.952 -77.88,118.952 -77.88,130.291 -100.556,130.291 -100.556,118.952 -123.233,118.952 -123.233,130.291 
		-145.911,130.291 -145.911,118.952 -168.588,118.952 -168.588,130.291 -191.265,130.291 -191.265,118.952 -213.942,118.952 
		-213.942,130.291 -224.997,130.291 -224.997,119.803 -235.485,119.803 -235.485,130.291 -246.541,130.291 -246.541,118.952 
		-279.139,118.952 -279.139,107.614 -267.801,107.614 -267.801,84.937 -279.139,84.937 -279.139,78.842 -268.651,78.842 
		-268.651,68.354 -279.139,68.354 -279.139,62.26 -267.801,62.26 -267.801,39.582 -279.139,39.582 	"/>
</g>
<g transform="translate(1510.6902185000001, 164.2324185) ">
	<polygon fill="none" stroke="#000000" stroke-width="0.9" points="-284.139,50.512 -251.541,50.512 -251.541,39.173 
		-240.485,39.173 -240.485,49.661 -229.997,49.661 -229.997,39.173 -218.942,39.173 -218.942,50.512 -196.265,50.512 
		-196.265,39.173 -173.588,39.173 -173.588,50.512 -150.911,50.512 -150.911,39.173 -128.233,39.173 -128.233,50.512 
		-105.556,50.512 -105.556,39.173 -82.88,39.173 -82.88,50.512 -60.202,50.512 -60.202,39.173 -37.525,39.173 -37.525,50.512 
		-14.847,50.512 -14.847,39.173 7.829,39.173 7.829,50.512 30.507,50.512 30.507,39.173 53.184,39.173 53.184,50.512 75.861,50.512 
		75.861,39.173 86.916,39.173 86.916,49.661 97.405,49.661 97.405,39.173 108.459,39.173 108.459,50.512 141.058,50.512 
		141.058,61.85 129.719,61.85 129.719,84.528 141.058,84.528 141.058,90.621 130.57,90.621 130.57,101.11 141.058,101.11 
		141.058,107.204 129.719,107.204 129.719,129.881 141.058,129.881 141.058,141.22 108.459,141.22 108.459,152.559 97.405,152.559 
		97.405,142.071 86.916,142.071 86.916,152.559 75.861,152.559 75.861,141.22 53.184,141.22 53.184,152.559 30.507,152.559 
		30.507,141.22 7.829,141.22 7.829,152.559 -14.847,152.559 -14.847,141.22 -37.525,141.22 -37.525,152.559 -60.202,152.559 
		-60.202,141.22 -82.88,141.22 -82.88,152.559 -105.556,152.559 -105.556,141.22 -128.233,141.22 -128.233,152.559 
		-150.911,152.559 -150.911,141.22 -173.588,141.22 -173.588,152.559 -196.265,152.559 -196.265,141.22 -218.942,141.22 
		-218.942,152.559 -229.997,152.559 -229.997,142.071 -240.485,142.071 -240.485,152.559 -251.541,152.559 -251.541,141.22 
		-284.139,141.22 -284.139,129.881 -272.801,129.881 -272.801,107.204 -284.139,107.204 -284.139,101.11 -273.651,101.11 
		-273.651,90.621 -284.139,90.621 -284.139,84.528 -272.801,84.528 -272.801,61.85 -284.139,61.85 	"/>
</g>
<g transform="translate(22.5000185, 164.2324185) ">
	<polygon fill="none" stroke="#000000" stroke-width="0.9" points="-15.843,-21.508 13.921,-21.508 13.921,-32.846 23.559,-32.846 
		23.559,-22.358 34.047,-22.358 34.047,-32.846 43.685,-32.846 43.685,-21.508 66.362,-21.508 66.362,-32.846 89.039,-32.846 
		89.039,-21.508 111.716,-21.508 111.716,-32.846 134.394,-32.846 134.394,-21.508 157.071,-21.508 157.071,-32.846 
		179.748,-32.846 179.748,-21.508 202.425,-21.508 202.425,-32.846 225.102,-32.846 225.102,-21.508 247.779,-21.508 
		247.779,-32.846 270.456,-32.846 270.456,-21.508 293.134,-21.508 293.134,-32.846 315.811,-32.846 315.811,-21.508 
		338.488,-21.508 338.488,-32.846 361.165,-32.846 361.165,-21.508 383.843,-21.508 383.843,-32.846 406.52,-32.846 406.52,-21.508 
		429.196,-21.508 429.196,-32.846 451.874,-32.846 451.874,-21.508 474.551,-21.508 474.551,-32.846 497.229,-32.846 
		497.229,-21.508 519.905,-21.508 519.905,-32.846 529.543,-32.846 529.543,-22.358 540.031,-22.358 540.031,-32.846 
		549.669,-32.846 549.669,-21.508 579.433,-21.508 579.433,-0.248 568.095,-0.248 568.095,11.657 559.307,11.657 559.307,8.114 
		552.221,8.114 552.221,11.657 545.134,11.657 545.134,20.445 552.221,20.445 552.221,23.988 559.307,23.988 559.307,20.445 
		568.095,20.445 568.095,32.35 579.433,32.35 579.433,55.028 568.095,55.028 568.095,77.704 579.433,77.704 579.433,100.382 
		568.095,100.382 568.095,123.059 579.433,123.059 579.433,145.736 568.095,145.736 568.095,168.413 579.433,168.413 
		579.433,191.09 568.095,191.09 568.095,213.768 579.433,213.768 579.433,236.445 568.095,236.445 568.095,259.121 579.433,259.121 
		579.433,281.799 568.095,281.799 568.095,304.476 579.433,304.476 579.433,327.154 568.095,327.154 568.095,339.059 
		559.307,339.059 559.307,335.516 552.221,335.516 552.221,339.059 545.134,339.059 545.134,347.846 552.221,347.846 
		552.221,351.389 559.307,351.389 559.307,347.846 568.095,347.846 568.095,359.751 579.433,359.751 579.433,381.011 
		549.669,381.011 549.669,392.35 540.031,392.35 540.031,381.862 529.543,381.862 529.543,392.35 519.905,392.35 519.905,381.011 
		497.229,381.011 497.229,392.35 474.551,392.35 474.551,381.011 451.874,381.011 451.874,392.35 429.196,392.35 429.196,381.011 
		406.52,381.011 406.52,392.35 383.843,392.35 383.843,381.011 361.165,381.011 361.165,392.35 338.488,392.35 338.488,381.011 
		315.811,381.011 315.811,392.35 293.134,392.35 293.134,381.011 270.456,381.011 270.456,392.35 247.779,392.35 247.779,381.011 
		225.102,381.011 225.102,392.35 202.425,392.35 202.425,381.011 179.748,381.011 179.748,392.35 157.071,392.35 157.071,381.011 
		134.394,381.011 134.394,392.35 111.716,392.35 111.716,381.011 89.039,381.011 89.039,392.35 66.362,392.35 66.362,381.011 
		43.685,381.011 43.685,392.35 34.047,392.35 34.047,381.862 23.559,381.862 23.559,392.35 13.921,392.35 13.921,381.011 
		-15.843,381.011 -15.843,359.751 -4.504,359.751 -4.504,347.846 4.283,347.846 4.283,351.389 11.37,351.389 11.37,347.846 
		18.457,347.846 18.457,339.059 11.37,339.059 11.37,335.516 4.283,335.516 4.283,339.059 -4.504,339.059 -4.504,327.154 
		-15.843,327.154 -15.843,304.476 -4.504,304.476 -4.504,281.799 -15.843,281.799 -15.843,259.121 -4.504,259.121 -4.504,236.445 
		-15.843,236.445 -15.843,213.768 -4.504,213.768 -4.504,191.09 -15.843,191.09 -15.843,168.413 -4.504,168.413 -4.504,145.736 
		-15.843,145.736 -15.843,123.059 -4.504,123.059 -4.504,100.382 -15.843,100.382 -15.843,77.704 -4.504,77.704 -4.504,55.028 
		-15.843,55.028 -15.843,32.35 -4.504,32.35 -4.504,20.445 4.283,20.445 4.283,23.988 11.37,23.988 11.37,20.445 18.457,20.445 
		18.457,11.657 11.37,11.657 11.37,8.114 4.283,8.114 4.283,11.657 -4.504,11.657 -4.504,-0.248 -15.843,-0.248 	"/>
</g>
<g transform="translate(766.5951185, 164.2324185) ">
	<polygon fill="none" stroke="#000000" stroke-width="0.9" points="-141.32,-14.441 -111.556,-14.441 -111.556,-25.78 
		-101.918,-25.78 -101.918,-15.292 -91.43,-15.292 -91.43,-25.78 -81.792,-25.78 -81.792,-14.441 -59.115,-14.441 -59.115,-25.78 
		-36.438,-25.78 -36.438,-14.441 -13.76,-14.441 -13.76,-25.78 8.917,-25.78 8.917,-14.441 31.594,-14.441 31.594,-25.78 
		54.271,-25.78 54.271,-14.441 76.948,-14.441 76.948,-25.78 99.626,-25.78 99.626,-14.441 122.302,-14.441 122.302,-25.78 
		144.98,-25.78 144.98,-14.441 167.657,-14.441 167.657,-25.78 190.335,-25.78 190.335,-14.441 213.011,-14.441 213.011,-25.78 
		235.688,-25.78 235.688,-14.441 258.366,-14.441 258.366,-25.78 281.043,-25.78 281.043,-14.441 303.719,-14.441 303.719,-25.78 
		326.397,-25.78 326.397,-14.441 349.074,-14.441 349.074,-25.78 371.752,-25.78 371.752,-14.441 394.428,-14.441 394.428,-25.78 
		404.066,-25.78 404.066,-15.292 414.554,-15.292 414.554,-25.78 424.192,-25.78 424.192,-14.441 453.956,-14.441 453.956,6.819 
		442.618,6.819 442.618,18.724 433.831,18.724 433.831,15.18 426.744,15.18 426.744,18.724 419.657,18.724 419.657,27.511 
		426.744,27.511 426.744,31.054 433.831,31.054 433.831,27.511 442.618,27.511 442.618,39.416 453.956,39.416 453.956,62.094 
		442.618,62.094 442.618,84.771 453.956,84.771 453.956,107.448 442.618,107.448 442.618,130.125 453.956,130.125 453.956,152.802 
		442.618,152.802 442.618,175.48 453.956,175.48 453.956,198.156 442.618,198.156 442.618,220.834 453.956,220.834 453.956,243.511 
		442.618,243.511 442.618,266.188 453.956,266.188 453.956,288.865 442.618,288.865 442.618,311.542 453.956,311.542 
		453.956,334.22 442.618,334.22 442.618,346.125 433.831,346.125 433.831,342.582 426.744,342.582 426.744,346.125 419.657,346.125 
		419.657,354.912 426.744,354.912 426.744,358.455 433.831,358.455 433.831,354.912 442.618,354.912 442.618,366.818 
		453.956,366.818 453.956,388.077 424.192,388.077 424.192,399.416 414.554,399.416 414.554,388.928 404.066,388.928 
		404.066,399.416 394.428,399.416 394.428,388.077 371.752,388.077 371.752,399.416 349.074,399.416 349.074,388.077 
		326.397,388.077 326.397,399.416 303.719,399.416 303.719,388.077 281.043,388.077 281.043,399.416 258.366,399.416 
		258.366,388.077 235.688,388.077 235.688,399.416 213.011,399.416 213.011,388.077 190.335,388.077 190.335,399.416 
		167.657,399.416 167.657,388.077 144.98,388.077 144.98,399.416 122.302,399.416 122.302,388.077 99.626,388.077 99.626,399.416 
		76.948,399.416 76.948,388.077 54.271,388.077 54.271,399.416 31.594,399.416 31.594,388.077 8.917,388.077 8.917,399.416 
		-13.76,399.416 -13.76,388.077 -36.438,388.077 -36.438,399.416 -59.115,399.416 -59.115,388.077 -81.792,388.077 -81.792,399.416 
		-91.43,399.416 -91.43,388.928 -101.918,388.928 -101.918,399.416 -111.556,399.416 -111.556,388.077 -141.32,388.077 
		-141.32,366.818 -129.981,366.818 -129.981,354.912 -121.194,354.912 -121.194,358.455 -114.107,358.455 -114.107,354.912 
		-107.02,354.912 -107.02,346.125 -114.107,346.125 -114.107,342.582 -121.194,342.582 -121.194,346.125 -129.981,346.125 
		-129.981,334.22 -141.32,334.22 -141.32,311.542 -129.981,311.542 -129.981,288.865 -141.32,288.865 -141.32,266.188 
		-129.981,266.188 -129.981,243.511 -141.32,243.511 -141.32,220.834 -129.981,220.834 -129.981,198.156 -141.32,198.156 
		-141.32,175.48 -129.981,175.48 -129.981,152.802 -141.32,152.802 -141.32,130.125 -129.981,130.125 -129.981,107.448 
		-141.32,107.448 -141.32,84.771 -129.981,84.771 -129.981,62.094 -141.32,62.094 -141.32,39.416 -129.981,39.416 -129.981,27.511 
		-121.194,27.511 -121.194,31.054 -114.107,31.054 -114.107,27.511 -107.02,27.511 -107.02,18.724 -114.107,18.724 -114.107,15.18 
		-121.194,15.18 -121.194,18.724 -129.981,18.724 -129.981,6.819 -141.32,6.819 	"/>
</g>
</svg>
