<?xml version="1.0" encoding="utf-8"?>
<!-- Generator: Adobe Illustrator 14.0.0, SVG Export Plug-In . SVG Version: 6.00 Build 43363)  -->
<!DOCTYPE svg PUBLIC "-//W3C//DTD SVG 1.1//EN" "http://www.w3.org/Graphics/SVG/1.1/DTD/svg11.dtd">
<svg version="1.1" id="Layer_1" xmlns="http://www.w3.org/2000/svg" xmlns:xlink="http://www.w3.org/1999/xlink" x="0px" y="0px"
	 width="1700.787px" height="1105.512px" viewBox="0 0 1700.787 1105.512" enable-background="new 0 0 1700.787 1105.512"
	 xml:space="preserve">
<g>
	<g transform="translate(22.5000185, 22.5000185) ">
		<polygon fill="none" stroke="#010101" stroke-width="0.9" points="27.093,260.101 44.101,260.101 44.101,268.605 51.046,268.605 
			51.046,270.022 46.794,270.022 46.794,279.377 51.046,279.377 51.046,288.731 62.668,288.731 62.668,279.377 66.92,279.377 
			66.92,270.022 62.668,270.022 62.668,268.605 69.613,268.605 69.613,260.101 86.621,260.101 86.621,268.605 103.628,268.605 
			103.628,260.101 120.636,260.101 120.636,268.605 137.644,268.605 137.644,260.101 154.652,260.101 154.652,268.605 
			171.66,268.605 171.66,260.101 188.668,260.101 188.668,268.605 205.676,268.605 205.676,260.101 222.684,260.101 
			222.684,268.605 239.691,268.605 239.691,260.101 256.699,260.101 256.699,268.605 273.707,268.605 273.707,260.101 
			290.715,260.101 290.715,268.605 307.723,268.605 307.723,260.101 324.73,260.101 324.73,268.605 341.738,268.605 
			341.738,260.101 358.746,260.101 358.746,268.605 375.754,268.605 375.754,260.101 392.762,260.101 392.762,268.605 
			409.77,268.605 409.77,260.101 426.778,260.101 426.778,268.605 443.786,268.605 443.786,260.101 460.794,260.101 
			460.794,268.605 477.802,268.605 477.802,260.101 494.81,260.101 494.81,268.605 511.817,268.605 511.817,260.101 
			528.825,260.101 528.825,268.605 545.833,268.605 545.833,260.101 562.841,260.101 562.841,268.605 569.786,268.605 
			569.786,270.022 565.534,270.022 565.534,279.377 569.786,279.377 569.786,288.731 581.408,288.731 581.408,279.377 
			585.66,279.377 585.66,270.022 581.408,270.022 581.408,268.605 588.353,268.605 588.353,260.101 605.36,260.101 605.36,284.195 
			613.864,284.195 613.864,290.999 603.376,290.999 603.376,301.487 613.864,301.487 613.864,308.29 605.36,308.29 605.36,325.298 
			613.864,325.298 613.864,332.101 603.376,332.101 603.376,342.589 613.864,342.589 613.864,349.393 605.36,349.393 
			605.36,373.487 588.353,373.487 588.353,364.983 581.408,364.983 581.408,363.565 585.66,363.565 585.66,354.211 581.408,354.211 
			581.408,344.857 569.786,344.857 569.786,354.211 565.534,354.211 565.534,363.565 569.786,363.565 569.786,364.983 
			562.841,364.983 562.841,373.487 545.833,373.487 545.833,364.983 528.825,364.983 528.825,373.487 511.817,373.487 
			511.817,364.983 494.81,364.983 494.81,373.487 477.802,373.487 477.802,364.983 460.794,364.983 460.794,373.487 
			443.786,373.487 443.786,364.983 426.778,364.983 426.778,373.487 409.77,373.487 409.77,364.983 392.762,364.983 
			392.762,373.487 375.754,373.487 375.754,364.983 358.746,364.983 358.746,373.487 341.738,373.487 341.738,364.983 
			324.73,364.983 324.73,373.487 307.723,373.487 307.723,364.983 290.715,364.983 290.715,373.487 273.707,373.487 
			273.707,364.983 256.699,364.983 256.699,373.487 239.691,373.487 239.691,364.983 222.684,364.983 222.684,373.487 
			205.676,373.487 205.676,364.983 188.668,364.983 188.668,373.487 171.66,373.487 171.66,364.983 154.652,364.983 
			154.652,373.487 137.644,373.487 137.644,364.983 120.636,364.983 120.636,373.487 103.628,373.487 103.628,364.983 
			86.621,364.983 86.621,373.487 69.613,373.487 69.613,364.983 62.668,364.983 62.668,363.565 66.92,363.565 66.92,354.211 
			62.668,354.211 62.668,344.857 51.046,344.857 51.046,354.211 46.794,354.211 46.794,363.565 51.046,363.565 51.046,364.983 
			44.101,364.983 44.101,373.487 27.093,373.487 27.093,349.393 18.589,349.393 18.589,342.589 29.077,342.589 29.077,332.101 
			18.589,332.101 18.589,325.298 27.093,325.298 27.093,308.29 18.589,308.29 18.589,301.487 29.077,301.487 29.077,290.999 
			18.589,290.999 18.589,284.195 27.093,284.195 		"/>
	</g>
	<g transform="translate(766.5951185, 22.5000185) ">
		<polygon fill="none" stroke="#010101" stroke-width="0.9" points="-121.727,260.101 -104.719,260.101 -104.719,268.605 
			-97.774,268.605 -97.774,270.022 -102.026,270.022 -102.026,279.377 -97.774,279.377 -97.774,288.731 -86.152,288.731 
			-86.152,279.377 -81.9,279.377 -81.9,270.022 -86.152,270.022 -86.152,268.605 -79.207,268.605 -79.207,260.101 -62.199,260.101 
			-62.199,268.605 -45.191,268.605 -45.191,260.101 -28.183,260.101 -28.183,268.605 -11.175,268.605 -11.175,260.101 
			5.833,260.101 5.833,268.605 22.84,268.605 22.84,260.101 39.848,260.101 39.848,268.605 56.856,268.605 56.856,260.101 
			73.864,260.101 73.864,268.605 90.872,268.605 90.872,260.101 107.88,260.101 107.88,268.605 124.887,268.605 124.887,260.101 
			141.895,260.101 141.895,268.605 158.903,268.605 158.903,260.101 175.911,260.101 175.911,268.605 192.919,268.605 
			192.919,260.101 209.926,260.101 209.926,268.605 226.934,268.605 226.934,260.101 243.943,260.101 243.943,268.605 
			260.951,268.605 260.951,260.101 277.959,260.101 277.959,268.605 294.966,268.605 294.966,260.101 311.974,260.101 
			311.974,268.605 328.982,268.605 328.982,260.101 345.99,260.101 345.99,268.605 362.998,268.605 362.998,260.101 
			380.005,260.101 380.005,268.605 397.013,268.605 397.013,260.101 414.021,260.101 414.021,268.605 420.966,268.605 
			420.966,270.022 416.714,270.022 416.714,279.377 420.966,279.377 420.966,288.731 432.589,288.731 432.589,279.377 
			436.84,279.377 436.84,270.022 432.589,270.022 432.589,268.605 439.533,268.605 439.533,260.101 456.541,260.101 
			456.541,284.195 465.046,284.195 465.046,290.999 454.557,290.999 454.557,301.487 465.046,301.487 465.046,308.29 
			456.541,308.29 456.541,325.298 465.046,325.298 465.046,332.101 454.557,332.101 454.557,342.589 465.046,342.589 
			465.046,349.393 456.541,349.393 456.541,373.487 439.533,373.487 439.533,364.983 432.589,364.983 432.589,363.565 
			436.84,363.565 436.84,354.211 432.589,354.211 432.589,344.857 420.966,344.857 420.966,354.211 416.714,354.211 
			416.714,363.565 420.966,363.565 420.966,364.983 414.021,364.983 414.021,373.487 397.013,373.487 397.013,364.983 
			380.005,364.983 380.005,373.487 362.998,373.487 362.998,364.983 345.99,364.983 345.99,373.487 328.982,373.487 
			328.982,364.983 311.974,364.983 311.974,373.487 294.966,373.487 294.966,364.983 277.959,364.983 277.959,373.487 
			260.951,373.487 260.951,364.983 243.943,364.983 243.943,373.487 226.934,373.487 226.934,364.983 209.926,364.983 
			209.926,373.487 192.919,373.487 192.919,364.983 175.911,364.983 175.911,373.487 158.903,373.487 158.903,364.983 
			141.895,364.983 141.895,373.487 124.887,373.487 124.887,364.983 107.88,364.983 107.88,373.487 90.872,373.487 90.872,364.983 
			73.864,364.983 73.864,373.487 56.856,373.487 56.856,364.983 39.848,364.983 39.848,373.487 22.84,373.487 22.84,364.983 
			5.833,364.983 5.833,373.487 -11.175,373.487 -11.175,364.983 -28.183,364.983 -28.183,373.487 -45.191,373.487 -45.191,364.983 
			-62.199,364.983 -62.199,373.487 -79.207,373.487 -79.207,364.983 -86.152,364.983 -86.152,363.565 -81.9,363.565 -81.9,354.211 
			-86.152,354.211 -86.152,344.857 -97.774,344.857 -97.774,354.211 -102.026,354.211 -102.026,363.565 -97.774,363.565 
			-97.774,364.983 -104.719,364.983 -104.719,373.487 -121.727,373.487 -121.727,349.393 -130.231,349.393 -130.231,342.589 
			-119.743,342.589 -119.743,332.101 -130.231,332.101 -130.231,325.298 -121.727,325.298 -121.727,308.29 -130.231,308.29 
			-130.231,301.487 -119.743,301.487 -119.743,290.999 -130.231,290.999 -130.231,284.195 -121.727,284.195 		"/>
	</g>
	<g transform="translate(1510.6902185000001, 22.5000185) ">
		<polygon fill="none" stroke="#010101" stroke-width="0.9" points="-279.051,268.605 -253.538,268.605 -253.538,260.101 
			-246.026,260.101 -246.026,270.589 -235.538,270.589 -235.538,260.101 -228.026,260.101 -228.026,268.605 -211.018,268.605 
			-211.018,260.101 -194.01,260.101 -194.01,268.605 -177.003,268.605 -177.003,260.101 -159.995,260.101 -159.995,268.605 
			-142.987,268.605 -142.987,260.101 -125.979,260.101 -125.979,268.605 -108.971,268.605 -108.971,260.101 -91.964,260.101 
			-91.964,268.605 -74.956,268.605 -74.956,260.101 -57.948,260.101 -57.948,268.605 -40.94,268.605 -40.94,260.101 
			-23.932,260.101 -23.932,268.605 -6.925,268.605 -6.925,260.101 10.083,260.101 10.083,268.605 27.091,268.605 27.091,260.101 
			44.099,260.101 44.099,268.605 61.108,268.605 61.108,260.101 78.115,260.101 78.115,268.605 95.123,268.605 95.123,260.101 
			102.635,260.101 102.635,270.589 113.123,270.589 113.123,260.101 120.635,260.101 120.635,268.605 146.147,268.605 
			146.147,284.195 137.643,284.195 137.643,290.432 136.226,290.432 136.226,286.18 126.871,286.18 126.871,290.432 
			117.517,290.432 117.517,302.054 126.871,302.054 126.871,306.306 136.226,306.306 136.226,302.054 137.643,302.054 
			137.643,308.29 146.147,308.29 146.147,325.298 137.643,325.298 137.643,331.534 136.226,331.534 136.226,327.282 
			126.871,327.282 126.871,331.534 117.517,331.534 117.517,343.156 126.871,343.156 126.871,347.408 136.226,347.408 
			136.226,343.156 137.643,343.156 137.643,349.393 146.147,349.393 146.147,364.983 120.635,364.983 120.635,373.487 
			113.123,373.487 113.123,362.999 102.635,362.999 102.635,373.487 95.123,373.487 95.123,364.983 78.115,364.983 78.115,373.487 
			61.108,373.487 61.108,364.983 44.099,364.983 44.099,373.487 27.091,373.487 27.091,364.983 10.083,364.983 10.083,373.487 
			-6.925,373.487 -6.925,364.983 -23.932,364.983 -23.932,373.487 -40.94,373.487 -40.94,364.983 -57.948,364.983 -57.948,373.487 
			-74.956,373.487 -74.956,364.983 -91.964,364.983 -91.964,373.487 -108.971,373.487 -108.971,364.983 -125.979,364.983 
			-125.979,373.487 -142.987,373.487 -142.987,364.983 -159.995,364.983 -159.995,373.487 -177.003,373.487 -177.003,364.983 
			-194.01,364.983 -194.01,373.487 -211.018,373.487 -211.018,364.983 -228.026,364.983 -228.026,373.487 -235.538,373.487 
			-235.538,362.999 -246.026,362.999 -246.026,373.487 -253.538,373.487 -253.538,364.983 -279.051,364.983 -279.051,349.393 
			-270.547,349.393 -270.547,343.156 -269.129,343.156 -269.129,347.408 -259.774,347.408 -259.774,343.156 -250.421,343.156 
			-250.421,331.534 -259.774,331.534 -259.774,327.282 -269.129,327.282 -269.129,331.534 -270.547,331.534 -270.547,325.298 
			-279.051,325.298 -279.051,308.29 -270.547,308.29 -270.547,302.054 -269.129,302.054 -269.129,306.306 -259.774,306.306 
			-259.774,302.054 -250.421,302.054 -250.421,290.432 -259.774,290.432 -259.774,286.18 -269.129,286.18 -269.129,290.432 
			-270.547,290.432 -270.547,284.195 -279.051,284.195 		"/>
	</g>
	<g transform="translate(1510.6902185000001, 164.2324185) ">
		<polygon fill="none" stroke="#010101" stroke-width="0.9" points="-279.051,240.258 -253.538,240.258 -253.538,231.754 
			-246.026,231.754 -246.026,242.243 -235.538,242.243 -235.538,231.754 -228.026,231.754 -228.026,240.258 -211.018,240.258 
			-211.018,231.754 -194.01,231.754 -194.01,240.258 -177.003,240.258 -177.003,231.754 -159.995,231.754 -159.995,240.258 
			-142.987,240.258 -142.987,231.754 -125.979,231.754 -125.979,240.258 -108.971,240.258 -108.971,231.754 -91.964,231.754 
			-91.964,240.258 -74.956,240.258 -74.956,231.754 -57.948,231.754 -57.948,240.258 -40.94,240.258 -40.94,231.754 
			-23.932,231.754 -23.932,240.258 -6.925,240.258 -6.925,231.754 10.083,231.754 10.083,240.258 27.091,240.258 27.091,231.754 
			44.099,231.754 44.099,240.258 61.108,240.258 61.108,231.754 78.115,231.754 78.115,240.258 95.123,240.258 95.123,231.754 
			102.635,231.754 102.635,242.243 113.123,242.243 113.123,231.754 120.635,231.754 120.635,240.258 146.147,240.258 
			146.147,255.849 137.643,255.849 137.643,262.085 136.226,262.085 136.226,257.833 126.871,257.833 126.871,262.085 
			117.517,262.085 117.517,273.707 126.871,273.707 126.871,277.959 136.226,277.959 136.226,273.707 137.643,273.707 
			137.643,279.943 146.147,279.943 146.147,296.951 137.643,296.951 137.643,303.188 136.226,303.188 136.226,298.936 
			126.871,298.936 126.871,303.188 117.517,303.188 117.517,314.81 126.871,314.81 126.871,319.062 136.226,319.062 136.226,314.81 
			137.643,314.81 137.643,321.046 146.147,321.046 146.147,336.636 120.635,336.636 120.635,345.141 113.123,345.141 
			113.123,334.652 102.635,334.652 102.635,345.141 95.123,345.141 95.123,336.636 78.115,336.636 78.115,345.141 61.108,345.141 
			61.108,336.636 44.099,336.636 44.099,345.141 27.091,345.141 27.091,336.636 10.083,336.636 10.083,345.141 -6.925,345.141 
			-6.925,336.636 -23.932,336.636 -23.932,345.141 -40.94,345.141 -40.94,336.636 -57.948,336.636 -57.948,345.141 -74.956,345.141 
			-74.956,336.636 -91.964,336.636 -91.964,345.141 -108.971,345.141 -108.971,336.636 -125.979,336.636 -125.979,345.141 
			-142.987,345.141 -142.987,336.636 -159.995,336.636 -159.995,345.141 -177.003,345.141 -177.003,336.636 -194.01,336.636 
			-194.01,345.141 -211.018,345.141 -211.018,336.636 -228.026,336.636 -228.026,345.141 -235.538,345.141 -235.538,334.652 
			-246.026,334.652 -246.026,345.141 -253.538,345.141 -253.538,336.636 -279.051,336.636 -279.051,321.046 -270.547,321.046 
			-270.547,314.81 -269.129,314.81 -269.129,319.062 -259.774,319.062 -259.774,314.81 -250.421,314.81 -250.421,303.188 
			-259.774,303.188 -259.774,298.936 -269.129,298.936 -269.129,303.188 -270.547,303.188 -270.547,296.951 -279.051,296.951 
			-279.051,279.943 -270.547,279.943 -270.547,273.707 -269.129,273.707 -269.129,277.959 -259.774,277.959 -259.774,273.707 
			-250.421,273.707 -250.421,262.085 -259.774,262.085 -259.774,257.833 -269.129,257.833 -269.129,262.085 -270.547,262.085 
			-270.547,255.849 -279.051,255.849 		"/>
	</g>
	<g transform="translate(22.5000185, 164.2324185) ">
		<polygon fill="none" stroke="#010101" stroke-width="0.9" points="18.589,240.258 44.101,240.258 44.101,231.754 51.613,231.754 
			51.613,242.243 62.101,242.243 62.101,231.754 69.613,231.754 69.613,240.258 86.621,240.258 86.621,231.754 103.628,231.754 
			103.628,240.258 120.636,240.258 120.636,231.754 137.644,231.754 137.644,240.258 154.652,240.258 154.652,231.754 
			171.66,231.754 171.66,240.258 188.668,240.258 188.668,231.754 205.676,231.754 205.676,240.258 222.684,240.258 
			222.684,231.754 239.691,231.754 239.691,240.258 256.699,240.258 256.699,231.754 273.707,231.754 273.707,240.258 
			290.715,240.258 290.715,231.754 307.723,231.754 307.723,240.258 324.73,240.258 324.73,231.754 341.738,231.754 
			341.738,240.258 358.746,240.258 358.746,231.754 375.754,231.754 375.754,240.258 392.762,240.258 392.762,231.754 
			409.77,231.754 409.77,240.258 426.778,240.258 426.778,231.754 443.786,231.754 443.786,240.258 460.794,240.258 
			460.794,231.754 477.802,231.754 477.802,240.258 494.81,240.258 494.81,231.754 511.817,231.754 511.817,240.258 
			528.825,240.258 528.825,231.754 545.833,231.754 545.833,240.258 562.841,240.258 562.841,231.754 570.353,231.754 
			570.353,242.243 580.841,242.243 580.841,231.754 588.353,231.754 588.353,240.258 613.864,240.258 613.864,257.267 
			605.36,257.267 605.36,264.211 603.943,264.211 603.943,259.959 594.589,259.959 594.589,264.211 585.234,264.211 
			585.234,275.833 594.589,275.833 594.589,280.085 603.943,280.085 603.943,275.833 605.36,275.833 605.36,282.778 
			613.864,282.778 613.864,299.786 605.36,299.786 605.36,316.794 613.864,316.794 613.864,333.802 605.36,333.802 605.36,350.81 
			613.864,350.81 613.864,367.817 605.36,367.817 605.36,384.825 613.864,384.825 613.864,401.833 605.36,401.833 605.36,418.841 
			613.864,418.841 613.864,435.849 605.36,435.849 605.36,452.857 613.864,452.857 613.864,469.865 605.36,469.865 605.36,486.873 
			613.864,486.873 613.864,503.88 605.36,503.88 605.36,520.888 613.864,520.888 613.864,537.897 605.36,537.897 605.36,554.905 
			613.864,554.905 613.864,571.913 605.36,571.913 605.36,588.92 613.864,588.92 613.864,605.928 605.36,605.928 605.36,612.874 
			603.943,612.874 603.943,608.622 594.589,608.622 594.589,612.874 585.234,612.874 585.234,624.495 594.589,624.495 
			594.589,628.747 603.943,628.747 603.943,624.495 605.36,624.495 605.36,631.44 613.864,631.44 613.864,648.448 588.353,648.448 
			588.353,656.952 580.841,656.952 580.841,646.463 570.353,646.463 570.353,656.952 562.841,656.952 562.841,648.448 
			545.833,648.448 545.833,656.952 528.825,656.952 528.825,648.448 511.817,648.448 511.817,656.952 494.81,656.952 
			494.81,648.448 477.802,648.448 477.802,656.952 460.794,656.952 460.794,648.448 443.786,648.448 443.786,656.952 
			426.778,656.952 426.778,648.448 409.77,648.448 409.77,656.952 392.762,656.952 392.762,648.448 375.754,648.448 
			375.754,656.952 358.746,656.952 358.746,648.448 341.738,648.448 341.738,656.952 324.73,656.952 324.73,648.448 
			307.723,648.448 307.723,656.952 290.715,656.952 290.715,648.448 273.707,648.448 273.707,656.952 256.699,656.952 
			256.699,648.448 239.691,648.448 239.691,656.952 222.684,656.952 222.684,648.448 205.676,648.448 205.676,656.952 
			188.668,656.952 188.668,648.448 171.66,648.448 171.66,656.952 154.652,656.952 154.652,648.448 137.644,648.448 
			137.644,656.952 120.636,656.952 120.636,648.448 103.628,648.448 103.628,656.952 86.621,656.952 86.621,648.448 69.613,648.448 
			69.613,656.952 62.101,656.952 62.101,646.463 51.613,646.463 51.613,656.952 44.101,656.952 44.101,648.448 18.589,648.448 
			18.589,631.44 27.093,631.44 27.093,624.495 28.51,624.495 28.51,628.747 37.865,628.747 37.865,624.495 47.219,624.495 
			47.219,612.874 37.865,612.874 37.865,608.622 28.51,608.622 28.51,612.874 27.093,612.874 27.093,605.928 18.589,605.928 
			18.589,588.92 27.093,588.92 27.093,571.913 18.589,571.913 18.589,554.905 27.093,554.905 27.093,537.897 18.589,537.897 
			18.589,520.888 27.093,520.888 27.093,503.88 18.589,503.88 18.589,486.873 27.093,486.873 27.093,469.865 18.589,469.865 
			18.589,452.857 27.093,452.857 27.093,435.849 18.589,435.849 18.589,418.841 27.093,418.841 27.093,401.833 18.589,401.833 
			18.589,384.825 27.093,384.825 27.093,367.817 18.589,367.817 18.589,350.81 27.093,350.81 27.093,333.802 18.589,333.802 
			18.589,316.794 27.093,316.794 27.093,299.786 18.589,299.786 18.589,282.778 27.093,282.778 27.093,275.833 28.51,275.833 
			28.51,280.085 37.865,280.085 37.865,275.833 47.219,275.833 47.219,264.211 37.865,264.211 37.865,259.959 28.51,259.959 
			28.51,264.211 27.093,264.211 27.093,257.267 18.589,257.267 		"/>
	</g>
	<g transform="translate(766.5951185, 164.2324185) ">
		<polygon fill="none" stroke="#010101" stroke-width="0.9" points="-130.231,240.258 -104.719,240.258 -104.719,231.754 
			-97.207,231.754 -97.207,242.243 -86.719,242.243 -86.719,231.754 -79.207,231.754 -79.207,240.258 -62.199,240.258 
			-62.199,231.754 -45.191,231.754 -45.191,240.258 -28.183,240.258 -28.183,231.754 -11.175,231.754 -11.175,240.258 
			5.833,240.258 5.833,231.754 22.84,231.754 22.84,240.258 39.848,240.258 39.848,231.754 56.856,231.754 56.856,240.258 
			73.864,240.258 73.864,231.754 90.872,231.754 90.872,240.258 107.88,240.258 107.88,231.754 124.887,231.754 124.887,240.258 
			141.895,240.258 141.895,231.754 158.903,231.754 158.903,240.258 175.911,240.258 175.911,231.754 192.919,231.754 
			192.919,240.258 209.926,240.258 209.926,231.754 226.934,231.754 226.934,240.258 243.943,240.258 243.943,231.754 
			260.951,231.754 260.951,240.258 277.959,240.258 277.959,231.754 294.966,231.754 294.966,240.258 311.974,240.258 
			311.974,231.754 328.982,231.754 328.982,240.258 345.99,240.258 345.99,231.754 362.998,231.754 362.998,240.258 
			380.005,240.258 380.005,231.754 397.013,231.754 397.013,240.258 414.021,240.258 414.021,231.754 421.533,231.754 
			421.533,242.243 432.021,242.243 432.021,231.754 439.533,231.754 439.533,240.258 465.046,240.258 465.046,257.267 
			456.541,257.267 456.541,264.211 455.124,264.211 455.124,259.959 445.769,259.959 445.769,264.211 436.415,264.211 
			436.415,275.833 445.769,275.833 445.769,280.085 455.124,280.085 455.124,275.833 456.541,275.833 456.541,282.778 
			465.046,282.778 465.046,299.786 456.541,299.786 456.541,316.794 465.046,316.794 465.046,333.802 456.541,333.802 
			456.541,350.81 465.046,350.81 465.046,367.817 456.541,367.817 456.541,384.825 465.046,384.825 465.046,401.833 
			456.541,401.833 456.541,418.841 465.046,418.841 465.046,435.849 456.541,435.849 456.541,452.857 465.046,452.857 
			465.046,469.865 456.541,469.865 456.541,486.873 465.046,486.873 465.046,503.88 456.541,503.88 456.541,520.888 
			465.046,520.888 465.046,537.897 456.541,537.897 456.541,554.905 465.046,554.905 465.046,571.913 456.541,571.913 
			456.541,588.92 465.046,588.92 465.046,605.928 456.541,605.928 456.541,612.874 455.124,612.874 455.124,608.622 
			445.769,608.622 445.769,612.874 436.415,612.874 436.415,624.495 445.769,624.495 445.769,628.747 455.124,628.747 
			455.124,624.495 456.541,624.495 456.541,631.44 465.046,631.44 465.046,648.448 439.533,648.448 439.533,656.952 
			432.021,656.952 432.021,646.463 421.533,646.463 421.533,656.952 414.021,656.952 414.021,648.448 397.013,648.448 
			397.013,656.952 380.005,656.952 380.005,648.448 362.998,648.448 362.998,656.952 345.99,656.952 345.99,648.448 
			328.982,648.448 328.982,656.952 311.974,656.952 311.974,648.448 294.966,648.448 294.966,656.952 277.959,656.952 
			277.959,648.448 260.951,648.448 260.951,656.952 243.943,656.952 243.943,648.448 226.934,648.448 226.934,656.952 
			209.926,656.952 209.926,648.448 192.919,648.448 192.919,656.952 175.911,656.952 175.911,648.448 158.903,648.448 
			158.903,656.952 141.895,656.952 141.895,648.448 124.887,648.448 124.887,656.952 107.88,656.952 107.88,648.448 90.872,648.448 
			90.872,656.952 73.864,656.952 73.864,648.448 56.856,648.448 56.856,656.952 39.848,656.952 39.848,648.448 22.84,648.448 
			22.84,656.952 5.833,656.952 5.833,648.448 -11.175,648.448 -11.175,656.952 -28.183,656.952 -28.183,648.448 -45.191,648.448 
			-45.191,656.952 -62.199,656.952 -62.199,648.448 -79.207,648.448 -79.207,656.952 -86.719,656.952 -86.719,646.463 
			-97.207,646.463 -97.207,656.952 -104.719,656.952 -104.719,648.448 -130.231,648.448 -130.231,631.44 -121.727,631.44 
			-121.727,624.495 -120.309,624.495 -120.309,628.747 -110.955,628.747 -110.955,624.495 -101.601,624.495 -101.601,612.874 
			-110.955,612.874 -110.955,608.622 -120.309,608.622 -120.309,612.874 -121.727,612.874 -121.727,605.928 -130.231,605.928 
			-130.231,588.92 -121.727,588.92 -121.727,571.913 -130.231,571.913 -130.231,554.905 -121.727,554.905 -121.727,537.897 
			-130.231,537.897 -130.231,520.888 -121.727,520.888 -121.727,503.88 -130.231,503.88 -130.231,486.873 -121.727,486.873 
			-121.727,469.865 -130.231,469.865 -130.231,452.857 -121.727,452.857 -121.727,435.849 -130.231,435.849 -130.231,418.841 
			-121.727,418.841 -121.727,401.833 -130.231,401.833 -130.231,384.825 -121.727,384.825 -121.727,367.817 -130.231,367.817 
			-130.231,350.81 -121.727,350.81 -121.727,333.802 -130.231,333.802 -130.231,316.794 -121.727,316.794 -121.727,299.786 
			-130.231,299.786 -130.231,282.778 -121.727,282.778 -121.727,275.833 -120.309,275.833 -120.309,280.085 -110.955,280.085 
			-110.955,275.833 -101.601,275.833 -101.601,264.211 -110.955,264.211 -110.955,259.959 -120.309,259.959 -120.309,264.211 
			-121.727,264.211 -121.727,257.267 -130.231,257.267 		"/>
	</g>
</g>
<g>
	<path fill="none" stroke="#000000" stroke-width="0.5" d="M300.351,584.834c0,2.383-0.371,4.58-1.113,6.592
		c-0.743,2.012-1.816,3.74-3.223,5.186s-3.086,2.554-5.039,3.325c-1.953,0.771-4.15,1.157-6.592,1.157
		c-2.422,0-4.6-0.391-6.533-1.172s-3.608-1.899-5.024-3.354c-1.417-1.455-2.49-3.174-3.223-5.156s-1.099-4.175-1.099-6.577
		c0-2.422,0.371-4.639,1.113-6.65c0.742-2.012,1.806-3.73,3.193-5.156c1.387-1.426,3.066-2.524,5.039-3.296
		c1.973-0.771,4.15-1.157,6.533-1.157c2.421,0,4.619,0.391,6.592,1.172c1.973,0.781,3.662,1.895,5.068,3.34s2.476,3.164,3.208,5.156
		S300.351,582.432,300.351,584.834z M292.323,584.834c0-3.262-0.718-5.801-2.153-7.617s-3.365-2.725-5.786-2.725
		c-1.563,0-2.94,0.405-4.131,1.216c-1.191,0.811-2.109,2.007-2.754,3.589s-0.967,3.428-0.967,5.537c0,2.09,0.317,3.916,0.952,5.479
		c0.634,1.562,1.542,2.759,2.725,3.589c1.182,0.83,2.573,1.245,4.175,1.245c2.421,0,4.351-0.913,5.786-2.739
		S292.323,588.057,292.323,584.834z"/>
	<path fill="none" stroke="#000000" stroke-width="0.5" d="M305.624,592.012l9.609-14.033l-8.086-12.48
		c-0.762-1.211-1.333-2.251-1.714-3.12c-0.381-0.868-0.571-1.704-0.571-2.505c0-0.82,0.366-1.557,1.099-2.212
		c0.732-0.654,1.626-0.981,2.681-0.981c1.211,0,2.153,0.356,2.827,1.069c0.674,0.714,1.606,2.036,2.798,3.97l6.445,10.43
		l6.885-10.43c0.566-0.879,1.05-1.631,1.45-2.256c0.4-0.625,0.786-1.143,1.157-1.553c0.371-0.41,0.786-0.718,1.245-0.923
		c0.458-0.205,0.991-0.308,1.597-0.308c1.094,0,1.987,0.327,2.681,0.981c0.693,0.655,1.04,1.431,1.04,2.329
		c0,1.309-0.752,3.086-2.256,5.332l-8.467,12.656l9.111,14.033c0.82,1.23,1.416,2.251,1.787,3.062
		c0.371,0.811,0.557,1.577,0.557,2.3c0,0.684-0.166,1.309-0.498,1.875c-0.333,0.566-0.801,1.016-1.406,1.348
		c-0.605,0.332-1.289,0.498-2.051,0.498c-0.82,0-1.514-0.171-2.08-0.513c-0.567-0.342-1.025-0.767-1.377-1.274
		s-1.006-1.494-1.963-2.959l-7.559-11.895l-8.027,12.246c-0.625,0.977-1.069,1.66-1.333,2.051s-0.582,0.771-0.952,1.143
		c-0.371,0.371-0.811,0.664-1.318,0.879c-0.508,0.215-1.104,0.322-1.787,0.322c-1.055,0-1.929-0.322-2.622-0.967
		c-0.693-0.645-1.04-1.582-1.04-2.812C303.485,595.87,304.198,594.102,305.624,592.012z"/>
	<path fill="none" stroke="#000000" stroke-width="0.5" d="M372.831,584.834c0,2.383-0.371,4.58-1.113,6.592
		c-0.743,2.012-1.816,3.74-3.223,5.186s-3.086,2.554-5.039,3.325c-1.953,0.771-4.15,1.157-6.592,1.157
		c-2.422,0-4.6-0.391-6.533-1.172s-3.608-1.899-5.024-3.354c-1.417-1.455-2.49-3.174-3.223-5.156s-1.099-4.175-1.099-6.577
		c0-2.422,0.371-4.639,1.113-6.65c0.742-2.012,1.806-3.73,3.193-5.156c1.387-1.426,3.066-2.524,5.039-3.296
		c1.973-0.771,4.15-1.157,6.533-1.157c2.421,0,4.619,0.391,6.592,1.172c1.973,0.781,3.662,1.895,5.068,3.34s2.476,3.164,3.208,5.156
		S372.831,582.432,372.831,584.834z M364.804,584.834c0-3.262-0.718-5.801-2.153-7.617s-3.365-2.725-5.786-2.725
		c-1.563,0-2.94,0.405-4.131,1.216c-1.191,0.811-2.109,2.007-2.754,3.589s-0.967,3.428-0.967,5.537c0,2.09,0.317,3.916,0.952,5.479
		c0.634,1.562,1.542,2.759,2.725,3.589c1.182,0.83,2.573,1.245,4.175,1.245c2.421,0,4.351-0.913,5.786-2.739
		S364.804,588.057,364.804,584.834z"/>
	<path fill="none" stroke="#000000" stroke-width="0.5" d="M286.314,623.736h-6.258c0.008,0.727,0.154,1.367,0.439,1.922
		s0.664,0.973,1.137,1.254s0.994,0.422,1.564,0.422c0.383,0,0.732-0.045,1.049-0.135s0.623-0.23,0.92-0.422s0.57-0.396,0.82-0.615
		s0.574-0.516,0.973-0.891c0.164-0.141,0.398-0.211,0.703-0.211c0.328,0,0.594,0.09,0.797,0.27s0.305,0.434,0.305,0.762
		c0,0.289-0.113,0.627-0.34,1.014s-0.568,0.758-1.025,1.113s-1.031,0.65-1.723,0.885s-1.486,0.352-2.385,0.352
		c-2.055,0-3.652-0.586-4.793-1.758s-1.711-2.762-1.711-4.77c0-0.945,0.141-1.822,0.422-2.631s0.691-1.502,1.23-2.08
		s1.203-1.021,1.992-1.33s1.664-0.463,2.625-0.463c1.25,0,2.322,0.264,3.217,0.791s1.564,1.209,2.01,2.045s0.668,1.688,0.668,2.555
		c0,0.805-0.23,1.326-0.691,1.564S287.15,623.736,286.314,623.736z M280.057,621.919h5.801c-0.078-1.094-0.373-1.912-0.885-2.455
		s-1.186-0.814-2.021-0.814c-0.797,0-1.451,0.275-1.963,0.826S280.166,620.841,280.057,621.919z"/>
	<path fill="none" stroke="#000000" stroke-width="0.5" d="M295.373,613.798v6.023l6.832-7.125c0.328-0.344,0.607-0.598,0.838-0.762
		s0.537-0.246,0.92-0.246c0.5,0,0.904,0.146,1.213,0.439s0.463,0.65,0.463,1.072c0,0.508-0.262,1.012-0.785,1.512l-4.23,4.008
		l4.875,6.984c0.344,0.484,0.602,0.908,0.773,1.271s0.258,0.717,0.258,1.061c0,0.383-0.15,0.715-0.451,0.996
		s-0.709,0.422-1.225,0.422c-0.484,0-0.879-0.104-1.184-0.311s-0.562-0.482-0.773-0.826s-0.398-0.656-0.562-0.938l-4.113-6.328
		l-2.848,2.73v3.551c0,0.719-0.164,1.252-0.492,1.6s-0.75,0.521-1.266,0.521c-0.297,0-0.582-0.078-0.855-0.234
		s-0.484-0.367-0.633-0.633c-0.109-0.219-0.176-0.473-0.199-0.762s-0.035-0.707-0.035-1.254v-12.773c0-0.703,0.154-1.23,0.463-1.582
		s0.729-0.527,1.26-0.527c0.523,0,0.947,0.174,1.271,0.521S295.373,613.087,295.373,613.798z"/>
	<path fill="none" stroke="#000000" stroke-width="0.5" d="M311.029,614.958c-0.445,0-0.826-0.137-1.143-0.41
		s-0.475-0.66-0.475-1.16c0-0.453,0.162-0.826,0.486-1.119s0.701-0.439,1.131-0.439c0.414,0,0.781,0.133,1.102,0.398
		s0.48,0.652,0.48,1.16c0,0.492-0.156,0.877-0.469,1.154S311.459,614.958,311.029,614.958z M312.611,618.263v9.246
		c0,0.641-0.152,1.125-0.457,1.453s-0.691,0.492-1.16,0.492s-0.85-0.168-1.143-0.504s-0.439-0.816-0.439-1.441v-9.152
		c0-0.633,0.146-1.109,0.439-1.43s0.674-0.48,1.143-0.48s0.855,0.16,1.16,0.48S312.611,617.693,312.611,618.263z"/>
	<path fill="none" stroke="#000000" stroke-width="0.5" d="M316.092,616.728h0.352v-1.922c0-0.516,0.014-0.92,0.041-1.213
		s0.104-0.545,0.229-0.756c0.125-0.219,0.305-0.396,0.539-0.533s0.496-0.205,0.785-0.205c0.406,0,0.773,0.152,1.102,0.457
		c0.219,0.203,0.357,0.451,0.416,0.744s0.088,0.709,0.088,1.248v2.18h1.172c0.453,0,0.799,0.107,1.037,0.322s0.357,0.49,0.357,0.826
		c0,0.43-0.17,0.73-0.51,0.902s-0.826,0.258-1.459,0.258h-0.598v5.883c0,0.5,0.018,0.885,0.053,1.154s0.129,0.488,0.281,0.656
		s0.4,0.252,0.744,0.252c0.188,0,0.441-0.033,0.762-0.1s0.57-0.1,0.75-0.1c0.258,0,0.49,0.104,0.697,0.311s0.311,0.463,0.311,0.768
		c0,0.516-0.281,0.91-0.844,1.184s-1.371,0.41-2.426,0.41c-1,0-1.758-0.168-2.273-0.504s-0.854-0.801-1.014-1.395
		s-0.24-1.387-0.24-2.379v-6.141h-0.422c-0.461,0-0.812-0.109-1.055-0.328s-0.363-0.496-0.363-0.832s0.127-0.611,0.381-0.826
		S315.607,616.728,316.092,616.728z"/>
	<path fill="none" stroke="#000000" stroke-width="0.5" d="M335.885,620.736c0,1.281-0.078,2.383-0.234,3.305
		s-0.445,1.758-0.867,2.508c-0.531,0.922-1.219,1.633-2.062,2.133s-1.781,0.75-2.812,0.75c-1.188,0-2.252-0.336-3.193-1.008
		s-1.65-1.602-2.127-2.789c-0.242-0.648-0.42-1.365-0.533-2.15s-0.17-1.635-0.17-2.549c0-1.18,0.062-2.242,0.188-3.188
		s0.32-1.758,0.586-2.438c0.461-1.125,1.131-1.982,2.01-2.572s1.928-0.885,3.146-0.885c0.805,0,1.535,0.131,2.191,0.393
		s1.232,0.645,1.729,1.148s0.916,1.127,1.26,1.869C335.588,616.552,335.885,618.376,335.885,620.736z M332.674,620.501
		c0-1.43-0.086-2.6-0.258-3.51s-0.461-1.598-0.867-2.062s-0.969-0.697-1.688-0.697c-1.031,0-1.748,0.52-2.15,1.559
		s-0.604,2.641-0.604,4.805c0,1.469,0.086,2.672,0.258,3.609s0.461,1.646,0.867,2.127s0.957,0.721,1.652,0.721
		c0.719,0,1.281-0.25,1.688-0.75s0.691-1.215,0.855-2.145S332.674,622.009,332.674,620.501z"/>
	<path fill="none" stroke="#000000" stroke-width="0.5" d="M350.146,620.736c0,1.281-0.078,2.383-0.234,3.305
		s-0.445,1.758-0.867,2.508c-0.531,0.922-1.219,1.633-2.062,2.133s-1.781,0.75-2.812,0.75c-1.188,0-2.252-0.336-3.193-1.008
		s-1.65-1.602-2.127-2.789c-0.242-0.648-0.42-1.365-0.533-2.15s-0.17-1.635-0.17-2.549c0-1.18,0.062-2.242,0.188-3.188
		s0.32-1.758,0.586-2.438c0.461-1.125,1.131-1.982,2.01-2.572s1.928-0.885,3.146-0.885c0.805,0,1.535,0.131,2.191,0.393
		s1.232,0.645,1.729,1.148s0.916,1.127,1.26,1.869C349.85,616.552,350.146,618.376,350.146,620.736z M346.936,620.501
		c0-1.43-0.086-2.6-0.258-3.51s-0.461-1.598-0.867-2.062s-0.969-0.697-1.688-0.697c-1.031,0-1.748,0.52-2.15,1.559
		s-0.604,2.641-0.604,4.805c0,1.469,0.086,2.672,0.258,3.609s0.461,1.646,0.867,2.127s0.957,0.721,1.652,0.721
		c0.719,0,1.281-0.25,1.688-0.75s0.691-1.215,0.855-2.145S346.936,622.009,346.936,620.501z"/>
	<path fill="none" stroke="#000000" stroke-width="0.5" d="M358.057,627.556v-10.664c-1.984,1.523-3.32,2.285-4.008,2.285
		c-0.328,0-0.619-0.131-0.873-0.393s-0.381-0.564-0.381-0.908c0-0.398,0.125-0.691,0.375-0.879s0.691-0.43,1.324-0.727
		c0.945-0.445,1.701-0.914,2.268-1.406s1.068-1.043,1.506-1.652s0.723-0.984,0.855-1.125s0.383-0.211,0.75-0.211
		c0.414,0,0.746,0.16,0.996,0.48s0.375,0.762,0.375,1.324v13.418c0,1.57-0.535,2.355-1.605,2.355c-0.477,0-0.859-0.16-1.148-0.48
		S358.057,628.181,358.057,627.556z"/>
</g>
<text transform="matrix(1 0 0 1 219.5298 796.019)" font-family="'Helvetica'" font-size="18">Open Innovation by: Malmö Uppfinnarförening</text>
</svg>
